# AST/ASF file generated using VICON BodyLanguage
# -----------------------------------------------
:version 1.10
:name VICON
:units
  mass 1.0
  length 0.45
  angle deg
:documentation
   .ast/.asf automatically generated from VICON data using
   VICON BodyBuilder and BodyLanguage model FoxedUp or BRILLIANT.MOD
:root
   order TX TY TZ RX RY RZ
   axis XYZ
   position 0 0 0  
   orientation 0 0 0 
:bonedata
  begin
     id 1 
     name lhipjoint
     direction 0.692814 -0.645514 0.321437 
     length 2.38754 
     axis 0 0 0  XYZ
  end
  begin
     id 2 
     name lfemur
     direction 0.34202 -0.939693 0  
     length 6.41921  
     axis 0 0 20  XYZ
    dof rx ry rz
    limits (-160.0 20.0)
           (-70.0 70.0)
           (-60.0 70.0)
  end
  begin
     id 3 
     name ltibia
     direction 0.34202 -0.939693 0   
     length 6.98247   
     axis 0 0 20   XYZ
    dof rx
    limits (-10.0 170.0)
  end
  begin
     id 4 
     name lfoot
     direction 0.0947186 -0.260237 0.960888   
     length 1.83034   
     axis -90 7.62852e-016 20   XYZ
    dof rx rz
    limits (-45.0 90.0)
           (-70.0 20.0)
  end
  begin
     id 5 
     name ltoes
     direction 1.53538e-011 -4.21952e-011 1   
     length 0.920499   
     axis -90 7.62852e-016 20   XYZ
    dof rx
    limits (-90.0 20.0)
  end
  begin
     id 6 
     name rhipjoint
     direction -0.631686 -0.693949 0.345555   
     length 2.2209  
     axis 0 0 0  XYZ 
  end
  begin
     id 7 
     name rfemur
     direction -0.34202 -0.939693 0   
     length 6.49542   
     axis 0 0 -20   XYZ
    dof rx ry rz
    limits (-160.0 20.0)
           (-70.0 70.0)
           (-70.0 60.0)
  end
  begin
     id 8 
     name rtibia
     direction -0.34202 -0.939693 0   
     length 7.21712   
     axis 0 0 -20   XYZ
    dof rx
    limits (-10.0 170.0)
 end
 begin
     id 9 
     name rfoot
     direction -0.0825378 -0.226771 0.970444   
     length 1.89724  
     axis -90 -7.62852e-016 -20   XYZ
    dof rx rz
    limits (-45.0 90.0)
           (-20.0 70.0)
  end
  begin
     id 10 
     name rtoes
     direction -1.53515e-011 -4.22016e-011 1   
     length 0.955868   
     axis -90 -7.62852e-016 -20   XYZ
    dof rx
    limits (-90.0 20.0)
  end
  begin
     id 11 
     name lowerback
     direction -0.0104711 0.984802 -0.173368   
     length 1.84931   
     axis 0 0 0   XYZ
    dof rx ry rz
    limits (-20.0 45.0)
           (-30.0 30.0)
           (-30.0 30.0)
  end
  begin
     id 12 
     name upperback
     direction -0.00286433 0.999996 -0.000382853   
     length 1.85768   
     axis 0 0 0   XYZ
    dof rx ry rz
    limits (-20.0 45.0)
           (-30.0 30.0)
           (-30.0 30.0)
  end
  begin
     id 13 
     name thorax
     direction 0.00167534 0.996793 0.0800069   
     length 1.92   
     axis 0 0 0   XYZ
    dof rx ry rz
    limits (-20.0 45.0)
           (-30.0 30.0)
           (-30.0 30.0)
  end
  begin
     id 14 
     name lowerneck
     direction -0.0672491 0.995415 0.068018   
     length 1.58923   
     axis 0 0 0   XYZ
    dof rx ry rz
    limits (-20.0 45.0)
           (-30.0 30.0)
           (-30.0 30.0)
  end
  begin
     id 15 
     name upperneck
     direction 0.0958019 0.982476 -0.159884   
     length 1.60189   
     axis 0 0 0   XYZ
    dof rx ry rz
    limits (-20.0 45.0)
           (-30.0 30.0)
           (-30.0 30.0)
  end
  begin
     id 16
     name head
     direction 0.032989 0.997338 -0.0650226  
     length 1.61681  
     axis 0 0 0   XYZ
    dof rx ry rz
    limits (-20.0 45.0)
           (-30.0 30.0)
           (-30.0 30.0)
  end
  begin
     id 17 
     name lclavicle
     direction 0.954279 0.298875 -0.00496069  
     length 2.99449  
     axis 0 0 0   XYZ
    dof ry rz
    limits (-20.0 10.0)
           (0.0 20.0)
  end
  begin
     id 18 
     name lhumerus
     direction 1 -4.48985e-011 -4.2057e-027   
     length 4.79185   
     axis 180 -30 -90   XYZ
    dof rx ry rz
    limits (-60.0 90.0)
           (-90.0 90.0)
           (-90.0 90.0)
  end
  begin
     id 19
     name lradius
     direction 1 -4.48945e-011 1.15441e-028   
     length 2.65553   
     axis 180 -30 -90   XYZ
    dof rx
    limits (-10.0 170.0)
  end
  begin
     id 20
     name lwrist
     direction 1 -4.4899e-011 4.8894e-028   
     length 1.32777   
     axis -2.56392e-016 90 90   XYZ
    dof ry
    limits (-180.0 0.0)
 end
  begin
     id 21 
     name lhand
     direction 1 -4.48908e-011 9.7788e-028   
     length 0.743904   
     axis -6.23971e-016 90 90   XYZ
    dof rx rz
    limits (-90.0 90.0)
           (-45.0 45.0)
  end
  begin
     id 22 
     name lfingers
     direction 1 -4.49068e-011 1.95576e-027   
     length 0.599754   
     axis -1.24794e-015 90 90   XYZ
    dof rx
    limits (0.0 90.0)
  end
  begin
     id 23
     name lthumb
     direction 0.707107 -6.34883e-011 0.707107   
     length 0.861131   
     axis -90 45 2.85299e-015   XYZ
    dof rx rz
    limits (-45.0 45.0)
           (-45.0 45.0)
  end
  begin
     id 24 
     name rclavicle
     direction -0.957921 0.286916 0.00811568   
     length 3.06817  
     axis 0 0 0   XYZ 
    dof ry rz
    limits (-10.0 20.0)
           (-20.0 0.0)
  end
  begin
     id 25 
     name rhumerus
     direction -1 -4.48971e-011 -3.07942e-027  
     length 4.77254   
     axis 180 30 90   XYZ
    dof rx ry rz
    limits (-90.0 60.0)
           (-90.0 90.0)
           (-90.0 90.0)
  end
  begin
     id 26 
     name rradius
     direction -1 -4.48957e-011 -9.6815e-028   
     length 2.75995   
     axis 180 30 90   XYZ
    dof rx
    limits (-10.0 170.0)
  end
  begin
     id 27 
     name rwrist
     direction -1 -4.48979e-011 4.8894e-028   
     length 1.37997   
     axis -2.56392e-016 -90 -90   XYZ
    dof ry
    limits (-180.0 0.0)
  end
  begin
     id 28
     name rhand
     direction -1 -4.48906e-011 9.7788e-028   
     length 0.701619   
     axis -6.23971e-016 -90 -90   XYZ
    dof rx rz
    limits (-90.0 90.0)
           (-45.0 45.0)
  end
  begin
     id 29
     name rfingers
     direction -1 -4.49018e-011 1.95576e-027   
     length 0.565663   
     axis -1.24794e-015 -90 -90   XYZ
    dof rx
    limits (0.0 90.0)
  end
  begin
     id 30
     name rthumb
     direction -0.707107 -6.34881e-011 0.707107   
     length 0.812183   
     axis -90 -45 -2.85299e-015   XYZ
    dof rx rz
    limits (-45.0 45.0)
           (-45.0 45.0)
  end
:hierarchy
  begin
    root lhipjoint rhipjoint lowerback
    lhipjoint lfemur
    lfemur ltibia
    ltibia lfoot
    lfoot ltoes
    rhipjoint rfemur
    rfemur rtibia
    rtibia rfoot
    rfoot rtoes
    lowerback upperback
    upperback thorax
    thorax lowerneck lclavicle rclavicle
    lowerneck upperneck
    upperneck head
    lclavicle lhumerus
    lhumerus lradius
    lradius lwrist
    lwrist lhand lthumb
    lhand lfingers
    rclavicle rhumerus
    rhumerus rradius
    rradius rwrist
    rwrist rhand rthumb
    rhand rfingers
  end

#!OML:ASF F:\VICON\USERDATA\INSTALL\rory3\rory3.ASF
:FULLY-SPECIFIED
:DEGREES
446
root -2.65342 15.3017 -1.08709 18.1524 25.0382 -4.08847
lowerback 19.5691 -2.27948 -6.51343
upperback -2.1378 -5.26097 -5.26269
thorax -13.4268 -2.16525 -0.631809
lowerneck -7.46324 1.64802 -8.19189
upperneck -1.34852 2.85276 18.2013
head 0.503449 1.7583 6.99253
rclavicle 3.57812e-014 6.99722e-014
rhumerus -55.133 -2.17615 -67.4272
rradius 30.9462
rwrist 1.75732
rhand -3.90561 14.2263
rfingers 7.12502
rthumb 21.8446 -14.5607
lclavicle 3.57812e-014 6.99722e-014
lhumerus -30.7693 12.541 58.5291
lradius 24.8659
lwrist 8.83267
lhand -6.12813 9.02846
lfingers 7.12502
lthumb 19.7092 38.0493
rfemur -44.253 -2.33634 34.1926
rtibia 47.1796
rfoot -21.2273 -21.9769
rtoes 5.18728
lfemur -47.057 -1.69282 0.621691
ltibia 34.2789
lfoot -3.0771 -8.71311
ltoes -11.7017
447
root -2.65584 15.3062 -1.09172 18.1069 24.7468 -4.29492
lowerback 19.5855 -2.25689 -6.72745
upperback -2.13005 -5.28145 -5.25501
thorax -13.4077 -2.15818 -0.497115
lowerneck -7.1693 1.8339 -7.90797
upperneck -1.65173 3.11672 18.1538
head 0.335424 1.86482 6.92266
rclavicle -1.59028e-015 -6.36111e-014
rhumerus -55.0951 -2.24054 -67.5666
rradius 30.9509
rwrist 1.68578
rhand -3.99662 14.3579
rfingers 7.12502
rthumb 21.7572 -14.4393
lclavicle -1.59028e-015 -6.36111e-014
lhumerus -30.6886 12.3819 58.4712
lradius 24.9014
lwrist 8.85341
lhand -6.10106 9.10777
lfingers 7.12502
lthumb 19.7352 38.1259
rfemur -44.1329 -2.05567 34.2831
rtibia 46.7803
rfoot -20.886 -21.9621
rtoes 4.62538
lfemur -46.9793 -1.45286 0.788233
ltibia 34.3093
lfoot -3.18692 -8.59937
ltoes -11.9711
448
root -2.65999 15.3124 -1.09549 18.0235 24.4545 -4.61924
lowerback 19.5358 -2.23443 -6.83987
upperback -2.09505 -5.26609 -5.23315
thorax -13.3255 -2.14465 -0.416254
lowerneck -7.07326 1.99708 -7.69355
upperneck -1.77386 3.34048 18.2124
head 0.256773 1.96822 6.90351
rclavicle -4.45278e-014 -6.36111e-014
rhumerus -55.0446 -2.34446 -67.7184
rradius 31.0335
rwrist 1.65156
rhand -4.03715 14.2403
rfingers 7.12502
rthumb 21.7183 -14.5614
lclavicle -4.45278e-014 -6.36111e-014
lhumerus -30.5462 12.1077 58.4376
lradius 25.0163
lwrist 8.91159
lhand -5.89699 9.56778
lfingers 7.12502
lthumb 19.9314 38.5657
rfemur -43.9901 -1.74957 34.524
rtibia 46.4185
rfoot -20.7501 -21.7798
rtoes 4.99251
lfemur -46.8996 -1.17191 1.07777
ltibia 34.3482
lfoot -3.29301 -8.49636
ltoes -12.3483
449
root -2.65977 15.3183 -1.09735 17.9075 24.1649 -4.92481
lowerback 19.4945 -2.23289 -6.94126
upperback -2.06414 -5.2794 -5.22877
thorax -13.2553 -2.14559 -0.352421
lowerneck -7.04901 2.17336 -7.48352
upperneck -1.77278 3.56961 18.3356
head 0.224305 2.08278 6.90813
rclavicle 6.99722e-014 6.67916e-014
rhumerus -55.0627 -2.53604 -67.7935
rradius 31.1966
rwrist 1.78475
rhand -3.95504 14.1156
rfingers 7.12502
rthumb 21.7971 -14.6769
lclavicle 6.99722e-014 6.67916e-014
lhumerus -30.4996 11.9602 58.2805
lradius 25.071
lwrist 8.85285
lhand -5.79366 9.82504
lfingers 7.12502
lthumb 20.0307 38.8126
rfemur -43.7725 -1.57791 34.7759
rtibia 46.092
rfoot -20.625 -21.521
rtoes 5.06866
lfemur -46.7519 -0.930034 1.34886
ltibia 34.3789
lfoot -3.38214 -8.40969
ltoes -12.088
450
root -2.65744 15.3232 -1.09862 17.7184 23.9507 -5.30686
lowerback 19.4735 -2.27572 -6.94191
upperback -2.00485 -5.32139 -5.1802
thorax -13.166 -2.16621 -0.285571
lowerneck -6.97847 2.3472 -7.37051
upperneck -1.85548 3.81302 18.4478
head 0.156565 2.19918 6.92425
rclavicle -4.77083e-015 0
rhumerus -54.9177 -2.57103 -67.9364
rradius 31.2654
rwrist 1.78617
rhand -3.98783 14.1224
rfingers 7.12502
rthumb 21.7656 -14.6738
lclavicle -4.77083e-015 0
lhumerus -30.5132 11.9847 58.1074
lradius 25.1317
lwrist 8.84391
lhand -5.7708 9.87336
lfingers 7.12502
lthumb 20.0527 38.8586
rfemur -43.5115 -1.5126 35.1297
rtibia 45.7763
rfoot -20.5332 -21.2395
rtoes 5.50462
lfemur -46.5942 -0.699509 1.68755
ltibia 34.4416
lfoot -3.43288 -8.36793
ltoes -12.1263
451
root -2.6565 15.3268 -1.09979 17.5432 23.7061 -5.60889
lowerback 19.4363 -2.32067 -7.02739
upperback -1.91467 -5.3846 -5.16454
thorax -13.0267 -2.19377 -0.203212
lowerneck -6.88732 2.5461 -7.20459
upperneck -2.02589 4.09924 18.5053
head 0.0562152 2.33164 6.9121
rclavicle -4.77083e-015 1.90833e-014
rhumerus -54.5546 -2.61966 -68.074
rradius 31.1363
rwrist 1.79986
rhand -3.99706 14.2019
rfingers 7.12502
rthumb 21.7568 -14.5953
lclavicle -4.77083e-015 1.90833e-014
lhumerus -30.3811 12.0707 57.8996
lradius 25.0227
lwrist 8.80256
lhand -5.68794 9.94153
lfingers 7.12502
lthumb 20.1323 38.9184
rfemur -43.2481 -1.38229 35.3843
rtibia 45.4943
rfoot -20.4097 -21.0938
rtoes 5.53202
lfemur -46.4232 -0.481454 1.94598
ltibia 34.5208
lfoot -3.5059 -8.33416
ltoes -12.3904
452
root -2.65517 15.3304 -1.10299 17.3559 23.4347 -5.98688
lowerback 19.4112 -2.32602 -7.01381
upperback -1.84262 -5.378 -5.16648
thorax -12.9292 -2.19606 -0.215828
lowerneck -6.75201 2.74145 -6.96756
upperneck -2.19873 4.37627 18.5699
head -0.0493935 2.45681 6.88798
rclavicle -2.54444e-014 4.45278e-014
rhumerus -54.4604 -2.76524 -68.2162
rradius 31.2283
rwrist 1.80643
rhand -3.98241 14.3168
rfingers 7.12502
rthumb 21.7709 -14.4788
lclavicle -2.54444e-014 4.45278e-014
lhumerus -30.0901 12.0644 57.7312
lradius 24.7156
lwrist 8.65991
lhand -5.81477 9.88552
lfingers 7.12502
lthumb 20.0104 38.8752
rfemur -42.9702 -1.22916 35.7434
rtibia 45.2459
rfoot -20.3921 -20.8538
rtoes 5.67964
lfemur -46.2754 -0.195111 2.26267
ltibia 34.6193
lfoot -3.62787 -8.31095
ltoes -12.6083
453
root -2.65275 15.3326 -1.10826 17.2531 23.141 -6.36583
lowerback 19.3374 -2.34349 -7.02154
upperback -1.81725 -5.38861 -5.13764
thorax -12.8518 -2.20252 -0.17917
lowerneck -6.53656 2.96269 -6.75211
upperneck -2.39227 4.69166 18.5831
head -0.178962 2.59534 6.84819
rclavicle 7.95139e-015 6.99722e-014
rhumerus -54.5047 -2.8388 -68.3354
rradius 31.5895
rwrist 1.65753
rhand -3.66001 14.1855
rfingers 7.12502
rthumb 22.0804 -14.5738
lclavicle 7.95139e-015 6.99722e-014
lhumerus -29.9526 11.8601 57.6482
lradius 24.5832
lwrist 8.67904
lhand -6.05897 9.86426
lfingers 7.12502
lthumb 19.7757 38.8783
rfemur -42.7656 -1.0885 36.1179
rtibia 45.0275
rfoot -20.5043 -20.3311
rtoes 7.22305
lfemur -46.2175 0.126018 2.58705
ltibia 34.7446
lfoot -3.71161 -8.24989
ltoes -12.3983
454
root -2.65105 15.3351 -1.11272 17.114 22.8223 -6.68539
lowerback 19.3143 -2.3733 -7.13291
upperback -1.77448 -5.44195 -5.10021
thorax -12.772 -2.22065 -0.0609296
lowerneck -6.43551 3.18344 -6.55475
upperneck -2.47838 4.99508 18.5893
head -0.256585 2.73736 6.81237
rclavicle 4.13472e-014 -3.18055e-014
rhumerus -54.4189 -2.88231 -68.4091
rradius 32.0022
rwrist 1.26329
rhand -2.9214 13.6326
rfingers 7.12502
rthumb 22.7894 -15.0412
lclavicle 4.13472e-014 -3.18055e-014
lhumerus -29.9325 11.5789 57.5774
lradius 24.5639
lwrist 8.77391
lhand -6.35351 9.55377
lfingers 7.12502
lthumb 19.4925 38.5967
rfemur -42.5095 -0.90885 36.3843
rtibia 44.777
rfoot -20.6179 -19.8799
rtoes 8.68313
lfemur -46.0991 0.417845 2.85867
ltibia 34.9077
lfoot -3.86193 -8.23889
ltoes -12.1672
455
root -2.64829 15.3339 -1.11731 17.0273 22.3978 -6.99324
lowerback 19.2246 -2.36039 -7.29635
upperback -1.76236 -5.44884 -5.08068
thorax -12.6885 -2.21484 0.0495704
lowerneck -6.3684 3.40241 -6.32651
upperneck -2.50038 5.28555 18.5847
head -0.306852 2.87677 6.76862
rclavicle 3.33958e-014 2.22639e-014
rhumerus -54.3669 -2.81058 -68.6183
rradius 32.1844
rwrist 1.11276
rhand -2.97002 13.6755
rfingers 7.12502
rthumb 22.7427 -15.0041
lclavicle 3.33958e-014 2.22639e-014
lhumerus -29.9406 11.303 57.502
lradius 24.6016
lwrist 8.88707
lhand -6.88285 9.0233
lfingers 7.12502
lthumb 18.9835 38.1169
rfemur -42.32 -0.680437 36.6398
rtibia 44.4804
rfoot -20.0843 -19.8296
rtoes 7.43588
lfemur -45.9928 0.77502 3.09502
ltibia 35.0869
lfoot -4.0825 -8.16313
ltoes -12.7618
456
root -2.64087 15.333 -1.1232 16.8678 22.026 -7.27179
lowerback 19.256 -2.35748 -7.38303
upperback -1.75118 -5.46732 -5.07864
thorax -12.6852 -2.21723 0.106631
lowerneck -6.18525 3.61094 -6.1171
upperneck -2.53085 5.5628 18.5935
head -0.377693 3.00355 6.7286
rclavicle -3.49861e-014 3.18055e-014
rhumerus -54.3978 -2.5717 -68.9516
rradius 31.8713
rwrist 1.87495
rhand -4.77446 15.1674
rfingers 7.12502
rthumb 21.0101 -13.7146
lclavicle -3.49861e-014 3.18055e-014
lhumerus -29.9445 11.129 57.3937
lradius 24.5921
lwrist 8.93188
lhand -7.26409 8.80068
lfingers 7.12502
lthumb 18.6168 37.9298
rfemur -42.0475 -0.604687 36.8805
rtibia 44.1236
rfoot -19.2321 -19.8687
rtoes 4.66839
lfemur -45.8293 1.05523 3.29313
ltibia 35.2504
lfoot -4.27823 -8.07683
ltoes -13.1814
457
root -2.63626 15.336 -1.12459 16.6534 21.6794 -7.62007
lowerback 19.2574 -2.37189 -7.42623
upperback -1.70813 -5.49111 -5.07244
thorax -12.6302 -2.22746 0.144319
lowerneck -6.29511 3.82074 -5.84882
upperneck -2.24349 5.79797 18.6963
head -0.302241 3.13793 6.72014
rclavicle 1.59028e-014 -9.54166e-015
rhumerus -54.2155 -2.60041 -68.9945
rradius 32.4692
rwrist 0.911854
rhand -3.45101 13.9399
rfingers 7.12502
rthumb 22.2811 -14.7956
lclavicle 1.59028e-014 -9.54166e-015
lhumerus -29.899 11.0157 57.1747
lradius 24.4624
lwrist 8.76657
lhand -7.28237 8.93644
lfingers 7.12502
lthumb 18.5992 38.0673
rfemur -41.6658 -0.422577 37.1418
rtibia 43.7094
rfoot -19.0386 -19.749
rtoes 3.7889
lfemur -45.5982 1.35686 3.56884
ltibia 35.3701
lfoot -4.41288 -8.04482
ltoes -13.2908
458
root -2.63461 15.3417 -1.12337 16.5744 21.2525 -7.90855
lowerback 19.072 -2.3626 -7.58644
upperback -1.68028 -5.48943 -5.06029
thorax -12.474 -2.22206 0.237552
lowerneck -6.84805 4.04108 -5.73804
upperneck -1.57984 6.00763 18.9278
head -0.04785 3.30152 6.7995
rclavicle -9.54166e-015 -3.18055e-015
rhumerus -54.1049 -2.52573 -69.1609
rradius 32.2846
rwrist 1.6652
rhand -4.57177 15.0001
rfingers 7.12502
rthumb 21.2048 -13.8601
lclavicle -9.54166e-015 -3.18055e-015
lhumerus -29.8334 11.0871 56.9553
lradius 24.3197
lwrist 8.44839
lhand -7.17696 8.99126
lfingers 7.12502
lthumb 18.7006 38.1124
rfemur -41.3925 -0.137747 37.3192
rtibia 43.2772
rfoot -19.128 -19.4944
rtoes 4.13678
lfemur -45.3931 1.76647 3.77271
ltibia 35.4476
lfoot -4.53278 -8.02319
ltoes -13.1075
459
root -2.62897 15.3511 -1.12155 16.3032 21.0384 -8.14009
lowerback 19.1278 -2.39129 -7.77842
upperback -1.5509 -5.55556 -5.00402
thorax -12.329 -2.24353 0.427182
lowerneck -7.25514 4.27392 -5.74918
upperneck -1.19971 6.2813 19.0821
head 0.0900183 3.47788 6.86911
rclavicle 4.29375e-014 3.49861e-014
rhumerus -53.8382 -2.63654 -69.0784
rradius 32.7273
rwrist 1.11646
rhand -3.44892 14.0502
rfingers 7.12502
rthumb 22.2831 -14.685
lclavicle 4.29375e-014 3.49861e-014
lhumerus -29.7118 11.0863 56.8986
lradius 24.2312
lwrist 8.30358
lhand -7.18616 8.93158
lfingers 7.12502
lthumb 18.6918 38.0535
rfemur -40.9696 -0.148497 37.5123
rtibia 42.8413
rfoot -18.862 -19.3629
rtoes 4.0276
lfemur -45.0593 1.90601 3.9542
ltibia 35.4971
lfoot -4.6022 -7.96386
ltoes -12.8397
460
root -2.62204 15.3562 -1.12143 15.9952 20.8542 -8.45464
lowerback 19.151 -2.44457 -7.97612
upperback -1.34584 -5.63417 -4.87703
thorax -12.0672 -2.2742 0.699383
lowerneck -7.46909 4.53103 -5.59927
upperneck -1.12798 6.61594 19.0242
head 0.109372 3.65777 6.83308
rclavicle 3.49861e-014 3.81667e-014
rhumerus -53.4273 -2.6977 -69.0171
rradius 33.0223
rwrist 0.971065
rhand -3.02643 13.6357
rfingers 7.12502
rthumb 22.6886 -15.0505
lclavicle 3.49861e-014 3.81667e-014
lhumerus -29.5309 11.3566 56.8238
lradius 24.1467
lwrist 8.12353
lhand -7.19631 8.90549
lfingers 7.12502
lthumb 18.682 38.0284
rfemur -40.5195 -0.196367 37.8158
rtibia 42.4368
rfoot -18.5673 -19.2046
rtoes 3.80681
lfemur -44.7541 2.06082 4.21031
ltibia 35.5672
lfoot -4.70959 -7.9371
ltoes -13.1965
